<?xml version="1.0" encoding="utf-8"?>
<!-- Generator: Adobe Illustrator 16.0.4, SVG Export Plug-In . SVG Version: 6.00 Build 0)  -->
<!DOCTYPE svg PUBLIC "-//W3C//DTD SVG 1.1//EN" "http://www.w3.org/Graphics/SVG/1.1/DTD/svg11.dtd">
<svg version="1.1" id="Layer_1" xmlns="http://www.w3.org/2000/svg" xmlns:xlink="http://www.w3.org/1999/xlink" x="0px" y="0px"
	 width="14px" height="16px" viewBox="0 0 14 16" enable-background="new 0 0 14 16" xml:space="preserve">
<title>ICON</title>
<desc>Created using Figma</desc>
<path id="a" fill="#FFFFFF" d="M12.34,4.19c0.01-0.01,0.02-0.02,0.03-0.033c0.274-0.36,0.21-0.88-0.14-1.16l-0.851-0.68
	c-0.354-0.28-0.86-0.214-1.135,0.147l-0.004,0.007c-0.742-0.4-1.565-0.663-2.44-0.765c0.006-0.016,0.01-0.03,0.01-0.048v-0.55h0.271
	c0.296,0,0.538-0.25,0.538-0.553c0-0.305-0.242-0.552-0.54-0.552H5.924c-0.297,0-0.538,0.248-0.538,0.553
	c0,0.304,0.24,0.552,0.538,0.552h0.27v0.55c0,0.018,0.004,0.033,0.006,0.05C2.71,2.11,0,5.143,0,8.827C0,12.787,3.134,16,7,16
	s7-3.21,7-7.172C14,7.058,13.374,5.442,12.34,4.19L12.34,4.19z M7,14.38c-2.993,0-5.418-2.485-5.418-5.552
	C1.582,5.76,4.007,3.276,7,3.276s5.418,2.485,5.418,5.552C12.418,11.895,9.993,14.38,7,14.38z"/>
<path id="b" fill="#FFFFFF" d="M8,6c0-0.552-0.448-1-1-1S6,5.448,6,6H8z M6,9c0,0.552,0.448,1,1,1s1-0.448,1-1H6z M6,6v3h2V6H6z"/>
</svg>
