<?xml version="1.0" encoding="UTF-8"?><!DOCTYPE svg PUBLIC "-//W3C//DTD SVG 1.1//EN" "http://www.w3.org/Graphics/SVG/1.1/DTD/svg11.dtd"><svg xmlns="http://www.w3.org/2000/svg" xmlns:xlink="http://www.w3.org/1999/xlink"><defs><path id="a" d="M10.354.354c.195-.196.195-.512 0-.708L7.172-3.536c-.196-.195-.512-.195-.708 0-.195.196-.195.512 0 .708L9.294 0l-2.83 2.828c-.195.196-.195.512 0 .708.196.195.512.195.708 0L10.354.354zM0 .5h10v-1H0v1z"/>
<path id="path0_fill" d="M 11.5 62L 11.5 3L 0 3L 0 73L 40 73L 40 62L 11.5 62Z"/>
<path id="path1_fill" d="M 52.2352 15.5C 56.0352 15.5 59.1352 12.3 59.1352 8.6C 59.1352 4.8 56.0352 1.7 52.2352 1.7C 48.4352 1.7 45.3352 4.8 45.3352 8.6C 45.3352 12.3 48.4352 15.5 52.2352 15.5ZM 46.8352 73L 57.6352 73L 57.6352 23L 46.8352 23L 46.8352 73Z"/>
<path id="path2_fill" d="M 108.975 23L 108.975 30.4C 105.175 25 99.275 21.7 91.575 21.7C 77.475 21.7 66.375 33.2 66.375 47.5C 66.375 61.8 77.475 73.3 91.575 73.3C 99.275 73.3 105.175 70 108.975 64.6L 108.975 70.7C 108.975 79.4 103.375 84.5 94.075 84.5C 85.375 84.5 81.675 81.1 79.475 76.8L 70.175 82.2C 74.375 90.2 82.875 94.3 93.875 94.3C 106.975 94.3 119.575 86.8 119.575 70.7L 119.575 23L 108.975 23ZM 93.075 63.2C 83.975 63.2 77.175 56.5 77.175 47.5C 77.175 38.5 83.975 31.8 93.075 31.8C 102.175 31.8 108.975 38.5 108.975 47.5C 108.975 56.5 102.175 63.2 93.075 63.2Z"/>
<path id="path3_fill" d="M 157.463 21.7C 150.663 21.7 145.263 24.2 141.963 29.4L 141.963 3L 131.163 3L 131.163 73L 141.963 73L 141.963 46.2C 141.963 36 147.563 31.8 154.663 31.8C 161.463 31.8 165.863 35.8 165.863 43.4L 165.863 73L 176.663 73L 176.663 42.3C 176.663 29.3 168.663 21.7 157.463 21.7Z"/>
<path id="path4_fill" d="M 215.192 33.4L 215.192 23L 202.792 23L 202.792 9L 191.992 12.2L 191.992 23L 182.792 23L 182.792 33.4L 191.992 33.4L 191.992 57.4C 191.992 70.4 198.592 75 215.192 73L 215.192 63.3C 206.992 63.7 202.792 63.8 202.792 57.4L 202.792 33.4L 215.192 33.4Z"/>
<path id="path5_fill" d="M 282.076 23L 272.276 57.5L 261.876 23L 251.576 23L 241.076 57.5L 231.376 23L 219.976 23L 235.676 73L 246.276 73L 256.776 39.3L 267.176 73L 277.776 73L 293.476 23L 282.076 23Z"/>
<path id="path6_fill" d="M 338.076 23L 338.076 30.1C 334.276 24.9 328.376 21.7 320.576 21.7C 306.976 21.7 295.676 33.1 295.676 48C 295.676 62.8 306.976 74.3 320.576 74.3C 328.376 74.3 334.276 71.1 338.076 65.8L 338.076 73L 348.876 73L 348.876 23L 338.076 23ZM 322.276 64C 313.276 64 306.476 57.3 306.476 48C 306.476 38.7 313.276 32 322.276 32C 331.276 32 338.076 38.7 338.076 48C 338.076 57.3 331.276 64 322.276 64Z"/>
<path id="path7_fill" d="M 360.464 73L 371.264 73L 371.264 0L 360.464 0L 360.464 73Z"/>
<path id="path8_fill" d="M 427.004 73L 404.204 47.5L 426.204 23L 413.004 23L 393.604 45.1L 393.604 3L 382.804 3L 382.804 73L 393.604 73L 393.604 49.9L 414.104 73L 427.004 73Z"/>
</defs><symbol id="arrow-left" viewBox="0 0 11 8"><title>Arrow</title><desc>Created using Figma</desc><use xlink:href="#a" transform="rotate(180 5.5 2)" fill="#FFF"/></symbol><symbol id="lightwalk-logo" viewBox="0 0 428 95">
<title>Lightwalk</title>
<desc>Created using Figma</desc>
<g id="Canvas" transform="translate(-3807 1653)">
<g id="Lightwalk">
<use xlink:href="#path0_fill" transform="translate(3807 -1653)" fill="#FFFFFF"/>
<use xlink:href="#path1_fill" transform="translate(3807 -1653)" fill="#FFFFFF"/>
<use xlink:href="#path2_fill" transform="translate(3807 -1653)" fill="#FFFFFF"/>
<use xlink:href="#path3_fill" transform="translate(3807 -1653)" fill="#FFFFFF"/>
<use xlink:href="#path4_fill" transform="translate(3807 -1653)" fill="#FFFFFF"/>
<use xlink:href="#path5_fill" transform="translate(3807 -1653)" fill="#FFFFFF"/>
<use xlink:href="#path6_fill" transform="translate(3807 -1653)" fill="#FFFFFF"/>
<use xlink:href="#path7_fill" transform="translate(3807 -1653)" fill="#FFFFFF"/>
<use xlink:href="#path8_fill" transform="translate(3807 -1653)" fill="#FFFFFF"/>
</g>
</g>

</symbol><symbol id="plus" viewBox="0 0 15 15">
<title>+</title>
<desc>Created using Figma</desc>
<path id="a" fill="#FFFFFF" d="M14.652,6.444H8.208V0H6.444v6.444H0v1.728h6.444v6.444h1.764V8.172h6.444V6.444z"/>
</symbol><symbol id="stopwatch" viewBox="0 0 14 16">
<title>ICON</title>
<desc>Created using Figma</desc>
<path id="a" fill="#FFFFFF" d="M12.34,4.19c0.01-0.01,0.02-0.02,0.03-0.033c0.274-0.36,0.21-0.88-0.14-1.16l-0.851-0.68
	c-0.354-0.28-0.86-0.214-1.135,0.147l-0.004,0.007c-0.742-0.4-1.565-0.663-2.44-0.765c0.006-0.016,0.01-0.03,0.01-0.048v-0.55h0.271
	c0.296,0,0.538-0.25,0.538-0.553c0-0.305-0.242-0.552-0.54-0.552H5.924c-0.297,0-0.538,0.248-0.538,0.553
	c0,0.304,0.24,0.552,0.538,0.552h0.27v0.55c0,0.018,0.004,0.033,0.006,0.05C2.71,2.11,0,5.143,0,8.827C0,12.787,3.134,16,7,16
	s7-3.21,7-7.172C14,7.058,13.374,5.442,12.34,4.19L12.34,4.19z M7,14.38c-2.993,0-5.418-2.485-5.418-5.552
	C1.582,5.76,4.007,3.276,7,3.276s5.418,2.485,5.418,5.552C12.418,11.895,9.993,14.38,7,14.38z"/>
<path id="b" fill="#FFFFFF" d="M8,6c0-0.552-0.448-1-1-1S6,5.448,6,6H8z M6,9c0,0.552,0.448,1,1,1s1-0.448,1-1H6z M6,6v3h2V6H6z"/>
</symbol></svg>